<svg width="50" height="33" viewBox="0 0 50 33" fill="none" xmlns="http://www.w3.org/2000/svg">
<path d="M21.7064 27.4043C22.9787 27.4043 24.0109 28.4357 24.0111 29.708C24.0111 30.9805 22.9789 32.0127 21.7064 32.0127C20.4341 32.0126 19.4027 30.9804 19.4027 29.708C19.403 28.4358 20.4342 27.4044 21.7064 27.4043ZM35.0453 25.2217C36.3177 25.2217 37.3499 26.253 37.35 27.5254C37.35 28.7979 36.3178 29.8291 35.0453 29.8291C33.773 29.8289 32.7416 28.7977 32.7416 27.5254C32.7416 26.2531 33.773 25.2219 35.0453 25.2217ZM35.1957 19.1982C35.4422 19.1543 35.6772 19.319 35.7211 19.5654C35.7646 19.8116 35.601 20.0469 35.3549 20.0908L19.601 22.8975L19.3763 22.9521C18.9002 23.0789 18.7461 23.192 18.684 23.2832C18.6135 23.3871 18.574 23.5886 18.6566 24.1836C18.7196 24.6365 18.8321 24.7876 18.9135 24.8457C18.9985 24.9062 19.1821 24.9609 19.6283 24.8867L36.3549 22.0459L36.6283 22.001C36.8997 21.9603 37.1633 21.9345 37.4056 21.9541C37.7129 21.979 37.9971 22.0772 38.2445 22.2939L38.348 22.3936L38.3695 22.417L38.3881 22.4434L39.9066 24.5967C40.0506 24.8013 40.0017 25.0843 39.7972 25.2285C39.5928 25.3722 39.3096 25.3234 39.1654 25.1191L37.6693 22.998C37.5819 22.9122 37.4867 22.8699 37.3324 22.8574C37.188 22.8458 37.0103 22.8608 36.7699 22.8965L36.5072 22.9395L19.7797 25.7803L19.7787 25.7812C19.2746 25.8652 18.7772 25.8631 18.3861 25.584C17.9914 25.3022 17.8315 24.8288 17.7592 24.3076C17.6815 23.748 17.643 23.2012 17.9349 22.7725C18.2269 22.3441 18.7617 22.158 19.3988 22.0127L19.4203 22.0088L35.1957 19.1982ZM5.65076 0.0146484C5.96106 -0.0530811 6.27909 0.089056 6.43591 0.365234L6.6488 0.739258L10.7074 7.51367C10.8458 7.74473 11.1006 7.88016 11.3695 7.86523L36.9144 6.43262C37.3692 6.40739 37.7344 6.80248 37.6732 7.25391L36.39 16.7344C36.3474 17.0486 36.105 17.2984 35.7924 17.3516L17.3129 20.4854C17.0078 20.5371 16.7034 20.3896 16.5551 20.1182L9.91248 7.94727L6.71423 2.99414C6.67085 2.92695 6.61687 2.86629 6.55212 2.81934C6.38027 2.69473 6.25047 2.64671 6.01404 2.71094L1.46912 3.92773C1.11403 4.02274 0.743894 3.83655 0.607788 3.49512L0.052124 2.10059C-0.11357 1.68466 0.133426 1.21983 0.570679 1.12402L5.65076 0.0146484Z" fill="#27BA5F"/>
<path d="M31.0639 11.5146L26.8254 11.8614L31.8798 17.7341L17.0066 11.1293L21.9024 10.6012L16.8343 7.56397L24.4863 7.02L31.0639 11.5146Z" fill="#F2F2F2"/>
</svg>
